<?xml version="1.0" encoding="UTF-8" standalone="no"?>
<!-- Created with Inkscape (http://www.inkscape.org/) -->

<svg
   xmlns:dc="http://purl.org/dc/elements/1.1/"
   xmlns:cc="http://creativecommons.org/ns#"
   xmlns:rdf="http://www.w3.org/1999/02/22-rdf-syntax-ns#"
   xmlns:svg="http://www.w3.org/2000/svg"
   xmlns="http://www.w3.org/2000/svg"
   xmlns:sodipodi="http://sodipodi.sourceforge.net/DTD/sodipodi-0.dtd"
   xmlns:inkscape="http://www.inkscape.org/namespaces/inkscape"
   width="48"
   height="48"
   viewBox="0 0 12.7 12.7"
   version="1.1"
   id="svg8"
   inkscape:version="0.92.4 5da689c313, 2019-01-14"
   sodipodi:docname="azote-palettes.svg">
  <defs
     id="defs2" />
  <sodipodi:namedview
     id="base"
     pagecolor="#ffffff"
     bordercolor="#666666"
     borderopacity="1.0"
     inkscape:pageopacity="0.0"
     inkscape:pageshadow="2"
     inkscape:zoom="8.15625"
     inkscape:cx="24"
     inkscape:cy="24"
     inkscape:document-units="mm"
     inkscape:current-layer="layer1"
     showgrid="false"
     units="px"
     inkscape:window-width="1900"
     inkscape:window-height="1011"
     inkscape:window-x="10"
     inkscape:window-y="35"
     inkscape:window-maximized="1"
     inkscape:snap-global="false" />
  <metadata
     id="metadata5">
    <rdf:RDF>
      <cc:Work
         rdf:about="">
        <dc:format>image/svg+xml</dc:format>
        <dc:type
           rdf:resource="http://purl.org/dc/dcmitype/StillImage" />
        <dc:title></dc:title>
      </cc:Work>
    </rdf:RDF>
  </metadata>
  <g
     inkscape:label="Layer 1"
     inkscape:groupmode="layer"
     id="layer1"
     transform="translate(0,-284.29998)">
    <path
       style="fill:#87cdde;stroke:none;stroke-width:1.28282821;stroke-miterlimit:4;stroke-dasharray:none"
       d="m 1.6177714,286.86974 c -0.3311227,0 -0.5594382,0.23335 -0.5594382,0.51385 v 6.5343 c 0,0.28051 0.2283155,0.51235 0.5594382,0.51235 h 9.4640826 c 0.331123,0 0.559813,-0.23184 0.559813,-0.51235 v -6.5343 c 0,-0.2805 -0.22869,-0.51385 -0.559813,-0.51385 z"
       id="rect4709-5"
       inkscape:connector-curvature="0" />
    <path
       style="fill:#37abc8;fill-opacity:1;stroke:none;stroke-width:0.1333333"
       d="M 25.001953 9.7128906 C 22.798972 9.709867 22.403747 9.7253329 21.064453 9.8867188 C 19.401747 10.086845 17.606286 10.47142 16.171875 10.929688 C 13.371531 11.82691 10.786357 13.178373 8.8535156 14.759766 C 7.3620233 15.979722 6.2024474 17.29793 5.5175781 18.546875 C 4.7490074 19.937817 4.2852798 21.299902 4.0722656 22.78125 C 3.9771349 23.439606 3.9771349 24.906521 4.0722656 25.539062 C 4.2853289 26.952606 4.6648187 28.030907 5.4257812 29.347656 C 7.1037025 32.261899 9.9689592 34.566007 14.005859 36.253906 C 16.619767 37.344716 19.276462 37.976799 22.320312 38.228516 C 23.260099 38.305996 25.538424 38.305996 26.466797 38.228516 C 30.956476 37.847653 35.014793 36.568263 38.207031 34.525391 C 39.5273 33.679873 41.282059 32.203989 42.191406 31.177734 C 43.211089 30.022333 43.668168 28.764252 43.455078 27.699219 C 43.329522 27.086066 43.013475 26.753921 42.126953 26.298828 C 41.837785 26.153354 41.494697 25.964765 41.369141 25.880859 C 41.239771 25.797029 40.924851 25.611426 40.669922 25.462891 C 40.045933 25.101454 39.791125 24.897423 39.501953 24.529297 C 38.664799 23.454626 38.398113 22.581089 38.679688 21.796875 C 38.85471 21.316119 38.994698 21.211825 39.455078 21.238281 C 39.786093 21.25442 40.079362 21.385214 40.638672 21.759766 C 41.593679 22.405196 41.979121 22.579064 42.367188 22.548828 C 42.648743 22.526264 42.822736 22.431264 43.207031 22.105469 C 43.507602 21.850691 43.601096 21.7475 43.730469 21.521484 C 43.981278 21.079317 44.016818 20.901739 43.994141 20.304688 C 43.978909 19.875409 43.958412 19.737151 43.863281 19.423828 C 43.539871 18.381397 43.024126 17.474436 42.244141 16.554688 C 41.129327 15.24115 39.03869 13.669872 36.900391 12.537109 C 33.997318 11.004095 30.833172 10.076866 27.359375 9.7480469 L 27.359375 9.7460938 C 27.19196 9.7309756 26.131988 9.7156119 25.001953 9.7128906 z M 34.505859 15.833984 C 36.201818 15.915169 37.458522 17.43474 37.146484 19.03125 C 37.065958 19.44953 36.888582 19.743195 36.53125 20.076172 C 35.967598 20.596877 35.415106 20.797941 34.625 20.771484 C 34.182116 20.759012 34.108418 20.743293 33.746094 20.589844 C 32.799973 20.197113 32.194349 19.363761 32.128906 18.369141 C 32.078582 17.613613 32.342207 16.875505 32.820312 16.414062 C 33.07697 16.166277 33.618217 15.930432 34.076172 15.871094 L 34.076172 15.873047 C 34.257332 15.849236 34.45052 15.833984 34.505859 15.833984 z "
       transform="matrix(0.26458333,0,0,0.26458333,0,284.29998)"
       id="path915" />
    <path
       style="fill:#000000;stroke:none;stroke-width:0.03527777"
       inkscape:connector-curvature="0"
       d="m -134.63374,329.49975 c 0.0897,0.0987 0.17939,0.17939 0.2063,0.17939 0.0269,0 -0.0269,-0.0807 -0.1166,-0.17939 -0.0897,-0.0987 -0.17939,-0.17939 -0.2063,-0.17939 -0.0269,0 0.0269,0.0807 0.1166,0.17939 z"
       id="path836" />
    <path
       style="font-style:normal;font-weight:normal;font-size:13.34438229px;line-height:1.25;font-family:sans-serif;letter-spacing:0px;word-spacing:0px;fill:#ffffff;fill-opacity:1;stroke:none;stroke-width:0.3032814"
       d="m 5.9443457,287.58589 -2.8525617,6.84435 h 1.4733717 l 0.6494736,-1.51331 h 2.5587154 l 0.625739,1.51331 H 9.8660521 L 6.995032,287.58589 Z m 0.5251545,1.8776 0.7685181,2.17936 H 5.7009811 Z"
       id="text4527-5"
       inkscape:connector-curvature="0" />
  </g>
</svg>
