<?xml version="1.0" encoding="UTF-8" standalone="no"?>
<!-- Created with Inkscape (http://www.inkscape.org/) -->

<svg
   xmlns:dc="http://purl.org/dc/elements/1.1/"
   xmlns:cc="http://creativecommons.org/ns#"
   xmlns:rdf="http://www.w3.org/1999/02/22-rdf-syntax-ns#"
   xmlns:svg="http://www.w3.org/2000/svg"
   xmlns="http://www.w3.org/2000/svg"
   xmlns:sodipodi="http://sodipodi.sourceforge.net/DTD/sodipodi-0.dtd"
   xmlns:inkscape="http://www.inkscape.org/namespaces/inkscape"
   width="48"
   height="48"
   viewBox="0 0 12.7 12.7"
   version="1.1"
   id="svg8"
   inkscape:version="0.92.4 5da689c313, 2019-01-14"
   sodipodi:docname="azote-palettes.svg">
  <defs
     id="defs2" />
  <sodipodi:namedview
     id="base"
     pagecolor="#ffffff"
     bordercolor="#666666"
     borderopacity="1.0"
     inkscape:pageopacity="0.0"
     inkscape:pageshadow="2"
     inkscape:zoom="14.303713"
     inkscape:cx="9.3723815"
     inkscape:cy="23.286472"
     inkscape:document-units="mm"
     inkscape:current-layer="layer1"
     showgrid="false"
     units="px"
     inkscape:window-width="1920"
     inkscape:window-height="1007"
     inkscape:window-x="0"
     inkscape:window-y="28"
     inkscape:window-maximized="1"
     inkscape:snap-global="false" />
  <metadata
     id="metadata5">
    <rdf:RDF>
      <cc:Work
         rdf:about="">
        <dc:format>image/svg+xml</dc:format>
        <dc:type
           rdf:resource="http://purl.org/dc/dcmitype/StillImage" />
        <dc:title />
      </cc:Work>
    </rdf:RDF>
  </metadata>
  <g
     inkscape:label="Layer 1"
     inkscape:groupmode="layer"
     id="layer1"
     transform="translate(0,-284.29998)">
    <path
       style="fill:#87cdde;stroke:none;stroke-width:1.28282821;stroke-miterlimit:4;stroke-dasharray:none"
       d="m 1.6177714,286.86974 c -0.3311227,0 -0.5594382,0.23335 -0.5594382,0.51385 v 6.5343 c 0,0.28051 0.2283155,0.51235 0.5594382,0.51235 h 9.4640826 c 0.331123,0 0.559813,-0.23184 0.559813,-0.51235 v -6.5343 c 0,-0.2805 -0.22869,-0.51385 -0.559813,-0.51385 z"
       id="rect4709-5"
       inkscape:connector-curvature="0" />
    <path
       style="fill:#37abc8;stroke:none;stroke-width:1.28282821;stroke-miterlimit:4;stroke-dasharray:none"
       d="m 2.6507495,289.69707 -1.5924163,2.44419 v 1.77663 c 0,0.28051 0.2283155,0.51235 0.5594382,0.51235 h 9.4640826 c 0.331123,0 0.559813,-0.23184 0.559813,-0.51235 v -1.54722 l -1.076302,-1.74347 -1.9766776,2.70526 -2.3360708,-1.26014 -1.4684736,0.51686 z"
       id="rect4683-3"
       inkscape:connector-curvature="0" />
    <circle
       style="fill:#ffdd55;stroke:none;stroke-width:0.96212113;stroke-miterlimit:4;stroke-dasharray:none"
       id="path4529-2"
       cx="20.943319"
       cy="286.97992"
       r="1.0229174" />
    <path
       style="fill:#ffffff;fill-opacity:1;stroke-width:0.02645835"
       d="m 10.684514,288.43339 c -0.235695,-0.32593 -0.506337,-0.54629 -0.8550858,-0.69608 -0.1100599,-0.0473 -0.3932092,-0.12322 -0.512196,-0.13722 -0.3435216,-0.0401 -0.6740422,0.005 -1.004777,0.13746 -0.084355,0.0337 -0.3443815,0.18387 -0.4157875,0.24005 -0.2810816,0.22035 -0.4873619,0.48645 -0.621051,0.80209 -0.046661,0.10972 -0.1045761,0.31117 -0.1256666,0.43774 -0.045822,0.27724 -0.030021,0.58052 0.046428,0.84704 0.05936,0.2095 0.1640302,0.43504 0.2330879,0.50429 0.066463,0.0663 0.1555388,0.10027 0.25107,0.0935 0.044241,-0.002 0.054903,-0.007 0.1208814,-0.0451 0.065325,-0.0378 0.075387,-0.0462 0.1005825,-0.0819 0.077028,-0.11042 0.081099,-0.21313 0.0148,-0.35084 -0.092174,-0.19317 -0.065044,-0.38396 0.076277,-0.53242 0.038848,-0.0409 0.1278421,-0.094 0.1855366,-0.11147 0.1539625,-0.0458 0.3261816,-0.004 0.4488199,0.11135 0.028575,0.0266 0.076652,0.10541 0.4533736,0.75023 0.3888141,0.66432 0.4237668,0.72335 0.4559683,0.75314 0.1173282,0.11182 0.249728,0.15061 0.3938509,0.1167 0.05957,-0.0141 0.2100638,-0.1011 0.3197098,-0.18546 0.3611,-0.27535 0.60419,-0.6454 0.714626,-1.08663 0.05063,-0.20348 0.06696,-0.3977 0.05125,-0.61391 -0.01432,-0.19855 -0.05681,-0.38345 -0.132735,-0.57899 -0.02857,-0.0723 -0.159458,-0.31884 -0.198954,-0.3735 z"
       id="path857"
       inkscape:connector-curvature="0" />
    <path
       style="font-style:normal;font-weight:normal;font-size:13.34438229px;line-height:1.25;font-family:sans-serif;letter-spacing:0px;word-spacing:0px;fill:#ffffff;fill-opacity:1;stroke:none;stroke-width:0.3032814"
       d="m 5.9443457,287.58589 -2.8525617,6.84435 h 1.4733717 l 0.6494736,-1.51331 h 2.5587154 l 0.625739,1.51331 H 9.8660521 L 6.995032,287.58589 Z m 0.5251545,1.8776 0.7685181,2.17936 H 5.7009811 Z"
       id="text4527-5"
       inkscape:connector-curvature="0" />
    <path
       style="fill:#0000ff;stroke-width:0.02645834"
       d="m 11.112028,290.25261 c 0.105684,0.29611 0.04002,0.60736 -0.174313,0.83858 -0.265629,0.284 -0.702367,0.32846 -1.0336919,0.1063 -0.1170141,-0.0772 -0.1315622,-0.0946 -0.2316867,-0.26795 -0.094024,-0.16276 -0.1079589,-0.19923 -0.116535,-0.31099 -0.020995,-0.2426 0.069289,-0.4907 0.2368838,-0.65743 0.118137,-0.11482 0.2242618,-0.17378 0.3850698,-0.21064 0.33598,-0.0772 0.650113,0.0544 0.881051,0.36933 0.0057,0.0105 0.03032,0.0687 0.05319,0.13273 z"
       id="path855"
       inkscape:connector-curvature="0" />
    <path
       style="fill:#808000;stroke-width:0.02645834"
       d="m 11.105662,288.34472 c 0.06167,0.22832 0.01583,0.48829 -0.123659,0.68784 -0.06323,0.0925 -0.09357,0.11698 -0.256405,0.21107 -0.16285,0.094 -0.199216,0.10794 -0.311004,0.11646 -0.148639,0.0127 -0.361554,-0.0317 -0.4852895,-0.10024 -0.1079191,-0.0617 -0.2419156,-0.19656 -0.3045809,-0.30505 -0.1041375,-0.18051 -0.1242163,-0.47002 -0.049674,-0.6765 0.1930933,-0.52714 0.8815784,-0.6935 1.2967114,-0.31426 0.1188,0.10909 0.190974,0.22583 0.2339,0.38085 z"
       id="path853"
       inkscape:connector-curvature="0" />
    <path
       style="fill:#ff0000;stroke-width:0.02645834"
       d="m 9.1268801,288.33114 c 0.02562,0.39623 -0.2321973,0.75052 -0.6100215,0.84024 -0.7862663,0.18308 -1.3242438,-0.74867 -0.7724996,-1.33797 0.1899716,-0.20081 0.4683374,-0.289 0.7364345,-0.22899 0.2699232,0.0591 0.4161277,0.17097 0.548744,0.41645 0.076282,0.14057 0.088759,0.18237 0.097343,0.31029 z"
       id="path827"
       inkscape:connector-curvature="0" />
  </g>
</svg>
